<?xml version="1.0" encoding="utf-8"?>

<!DOCTYPE svg PUBLIC "-//W3C//DTD SVG 1.1//EN" "http://www.w3.org/Graphics/SVG/1.1/DTD/svg11.dtd">
<!-- Uploaded to: SVG Repo, www.svgrepo.com, Generator: SVG Repo Mixer Tools -->
<svg height="800px" width="800px" version="1.1" id="_x32_" xmlns="http://www.w3.org/2000/svg" xmlns:xlink="http://www.w3.org/1999/xlink" 
	 viewBox="0 0 512 512"  xml:space="preserve">
<style type="text/css">
	.st0{fill:#000000;}
</style>
<g>
	<path class="st0" d="M0,431.261c0,8.399,6.812,15.21,15.21,15.21h46.536c-0.217,1.505-0.465,3.002-0.465,4.566
		c0,18.084,14.649,32.733,32.733,32.733c18.077,0,32.733-14.648,32.733-32.733c0-1.564-0.248-3.061-0.464-4.566h34.597
		c-0.217,1.505-0.465,3.002-0.465,4.566c0,18.084,14.649,32.733,32.733,32.733c18.076,0,32.732-14.648,32.732-32.733
		c0-1.564-0.247-3.061-0.464-4.566h61.154c-0.209,1.505-0.457,3.002-0.457,4.566c0,18.084,14.649,32.733,32.733,32.733
		c18.077,0,32.733-14.648,32.733-32.733c0-1.564-0.248-3.061-0.457-4.566h34.581c-0.209,1.505-0.457,3.002-0.457,4.566
		c0,18.084,14.649,32.733,32.733,32.733c18.076,0,32.733-14.648,32.733-32.733c0-1.564-0.248-3.061-0.457-4.566h46.535
		c8.398,0,15.209-6.811,15.209-15.21v-42.268H0V431.261z"/>
	<path class="st0" d="M427.269,140.642h-74.441l4.08-3.054l69.514-52.089L350.014,28.23l-76.409,57.269l73.594,55.143H164.794
		l4.079-3.054l69.515-52.089L161.979,28.23L85.563,85.499l73.601,55.143H84.732C37.935,140.642,0,178.578,0,225.375v144.456h512
		V225.375C512,178.578,474.065,140.642,427.269,140.642z M311.945,85.499l38.07-28.534l38.07,28.534l-38.07,28.526L311.945,85.499z
		 M123.909,85.499l38.07-28.534l38.07,28.534l-38.07,28.526L123.909,85.499z M198.23,316.169h-80.48v-68.983h80.48V316.169z
		 M394.244,316.169h-80.48v-68.983h80.48V316.169z"/>
</g>
</svg>