<?xml version="1.0" ?><svg id="Layer_2" style="enable-background:new 0 0 1000 1000;" version="1.1" viewBox="0 0 1000 1000" xml:space="preserve" xmlns="http://www.w3.org/2000/svg" xmlns:xlink="http://www.w3.org/1999/xlink"><path d="M163.637,677.645h672.726c6.378,0,11.549-5.17,11.549-11.549V651.66  c0-6.379-5.17-11.549-11.549-11.549h-2.673l-2.674-57.526c-0.923-19.849-6.748-39.16-16.957-56.208l-44.746-74.73  c-3.96-6.613,0.804-15.019,8.512-15.019h0c5.479,0,9.922-4.442,9.922-9.921v-1.829c0-5.479-4.442-9.921-9.922-9.921H596.233  c0.014-0.257,0.039-0.511,0.039-0.771v-1.444c0-7.84-6.355-14.195-14.195-14.195h-64.919l40.813-54.697h92.588  c4.518,0,8.181-3.663,8.181-8.181c0-4.518-3.663-8.181-8.181-8.181H443.614c-8.762,0-16.999-3.412-23.194-9.608l-33.551-33.551  c-3.195-3.194-8.374-3.194-11.57,0c-3.194,3.194-3.194,8.375,0,11.569l33.551,33.551c9.286,9.286,21.632,14.4,34.764,14.4h41.734  l-40.807,54.697h-31.368c-7.84,0-14.196,6.355-14.196,14.195v1.444c0,0.26,0.025,0.514,0.039,0.771H217.426  c-5.479,0-9.922,4.442-9.922,9.921v1.829c0,5.479,4.442,9.921,9.922,9.921c7.708,0,12.472,8.406,8.513,15.019l-44.747,74.73  c-10.208,17.048-16.034,36.359-16.957,56.208l-2.684,57.724c-5.381,0.983-9.463,5.687-9.463,11.352v14.436  C152.088,672.475,157.259,677.645,163.637,677.645z M706.12,489.975c0-10.634,8.614-19.248,19.248-19.248h27.323l40.729,68.014  c3.628,6.073,6.583,12.541,8.796,19.248h-76.849c-10.634,0-19.248-8.623-19.248-19.248V489.975z M611.833,489.975  c0-10.634,8.613-19.248,19.248-19.248h38.304c10.635,0,19.249,8.614,19.249,19.248v48.766c0,10.625-8.614,19.248-19.249,19.248  h-38.304c-10.635,0-19.248-8.623-19.248-19.248V489.975z M517.516,489.975c0-10.634,8.613-19.248,19.248-19.248h38.304  c10.634,0,19.248,8.614,19.248,19.248v48.766c0,10.625-8.614,19.248-19.248,19.248h-38.304c-10.635,0-19.248-8.623-19.248-19.248  V489.975z M505.76,343.849h31.797l-40.813,54.697h-31.791L505.76,343.849z M423.2,489.975c0-10.634,8.613-19.248,19.249-19.248  h38.304c10.634,0,19.248,8.614,19.248,19.248v48.766c0,10.625-8.614,19.248-19.248,19.248h-38.304  c-10.635,0-19.249-8.623-19.249-19.248V489.975z M324.379,489.975c0-10.634,8.613-19.248,19.249-19.248h41.701  c10.635,0,19.248,8.614,19.248,19.248v150.136h-80.198V489.975z M201.835,538.74l40.72-68.014h43.954  c10.625,0,19.248,8.614,19.248,19.248v48.766c0,10.625-8.623,19.248-19.248,19.248h-93.47  C195.252,551.281,198.197,544.813,201.835,538.74z" style="fill:#231F20;"/><path d="M373.116,492.217H355.84c-4.408,0-7.979,3.57-7.979,7.979v66.175c0,4.408,3.571,7.978,7.979,7.978  h17.275c4.398,0,7.969-3.57,7.969-7.978v-66.175C381.085,495.788,377.514,492.217,373.116,492.217z" style="fill:#231F20;"/><path d="M213.23,718.066c14.706,0,26.985-10.298,30.056-24.06h-60.112  C186.245,707.769,198.534,718.066,213.23,718.066z" style="fill:#231F20;"/><path d="M317.392,694.006H257.28c3.07,13.763,15.36,24.06,30.056,24.06  C302.042,718.066,314.322,707.769,317.392,694.006z" style="fill:#231F20;"/><path d="M361.442,718.066c14.706,0,26.985-10.298,30.056-24.06h-60.112  C334.456,707.769,346.745,718.066,361.442,718.066z" style="fill:#231F20;"/><path d="M663.86,694.006h-60.112c3.07,13.763,15.36,24.06,30.056,24.06  C648.51,718.066,660.79,707.769,663.86,694.006z" style="fill:#231F20;"/><path d="M737.966,694.006h-60.112c3.07,13.763,15.36,24.06,30.057,24.06  C722.615,718.066,734.896,707.769,737.966,694.006z" style="fill:#231F20;"/><path d="M751.959,694.006c3.071,13.763,15.36,24.06,30.057,24.06c14.706,0,26.986-10.298,30.056-24.06  H751.959z" style="fill:#231F20;"/></svg>